<?xml version="1.0" standalone="no"?>
<!DOCTYPE svg PUBLIC "-//W3C//DTD SVG 20010904//EN"
 "http://www.w3.org/TR/2001/REC-SVG-20010904/DTD/svg10.dtd">
<svg version="1.0" xmlns="http://www.w3.org/2000/svg"
 width="256.000000pt" height="256.000000pt" viewBox="0 0 256.000000 256.000000"
 preserveAspectRatio="xMidYMid meet">

<g transform="translate(0.000000,256.000000) scale(0.100000,-0.100000)"
fill="#000000" stroke="none">
<path d="M0 2046 c0 -443 2 -515 15 -526 8 -7 12 -17 8 -23 -4 -6 -1 -7 6 -2
9 5 9 11 3 17 -6 6 -8 18 -5 27 4 12 3 13 -5 3 -6 -9 -9 6 -8 47 1 52 4 61 19
61 18 0 20 -21 7 -75 -10 -41 3 -70 47 -111 55 -50 68 -54 59 -18 -4 14 -3 23
2 20 5 -3 6 11 2 35 -9 50 0 42 21 -18 8 -26 22 -47 31 -49 13 -2 13 5 2 54
-9 40 -10 60 -2 69 7 9 7 13 -1 13 -14 0 -14 35 -1 61 6 10 18 19 26 19 11 0
13 6 9 20 -5 17 1 24 34 39 40 17 41 18 19 30 -23 11 -23 11 -1 7 17 -3 21 0
18 17 -3 11 -11 27 -19 36 -14 15 -14 19 2 35 9 11 12 16 6 13 -18 -10 -42 25
-39 55 2 14 -3 38 -11 53 -14 28 -10 50 8 39 6 -4 8 1 6 12 -2 13 5 23 22 32
14 7 17 10 8 8 -11 -3 -22 3 -28 14 -8 14 -8 20 0 20 8 0 8 6 0 20 -8 15 -8
20 2 21 7 0 4 4 -7 9 -19 8 -19 9 2 9 12 1 27 -7 32 -16 6 -11 11 -13 11 -5 0
8 5 10 13 6 9 -6 9 -4 0 7 -15 16 -17 33 -3 24 6 -3 10 -1 10 4 0 6 9 11 20
11 23 0 25 10 8 29 -11 12 -10 13 6 7 15 -5 17 -2 12 17 -7 30 1 39 25 27 11
-6 20 -6 24 -1 3 6 15 8 27 6 11 -3 18 -2 14 2 -3 3 -1 12 5 20 6 7 8 13 4 13
-4 0 -2 7 5 15 11 13 14 13 26 -2 10 -14 13 -15 14 -4 0 11 4 9 14 -4 8 -11
12 -23 10 -27 -2 -4 0 -9 6 -13 6 -3 14 4 19 17 7 15 10 17 10 7 1 -20 -24
-43 -38 -35 -5 3 -7 -2 -4 -13 3 -11 -4 -28 -16 -40 -12 -12 -18 -21 -15 -21
4 0 2 -6 -3 -12 -29 -38 -65 -248 -43 -248 12 0 19 -39 9 -46 -5 -3 -7 -10 -4
-15 4 -5 1 -9 -5 -9 -7 0 -9 7 -6 16 5 12 2 15 -11 10 -15 -6 -15 -4 2 14 10
11 13 20 7 20 -7 0 -12 11 -12 23 0 33 -34 72 -47 55 -12 -15 -5 -128 8 -128
16 0 9 -49 -9 -62 -26 -20 -45 -69 -32 -82 8 -8 9 -6 5 7 -4 9 -3 17 3 17 13
0 24 -29 16 -43 -3 -7 1 -5 8 4 8 10 30 24 50 32 27 12 36 22 40 46 3 19 -1
36 -11 47 -15 15 -14 16 2 11 10 -4 16 -3 13 1 -2 4 -1 14 5 22 7 12 9 10 9
-9 0 -19 3 -21 14 -12 11 9 14 -3 18 -76 4 -96 17 -136 29 -93 7 23 7 23 8 -7
2 -48 21 -52 21 -4 0 23 5 41 10 41 6 0 10 -7 10 -15 0 -8 8 -29 19 -48 10
-18 20 -49 23 -69 3 -30 0 -38 -17 -43 -11 -4 -24 -7 -28 -6 -5 1 -5 -4 -2
-10 5 -8 10 -8 18 0 17 17 25 13 42 -21 l16 -33 -21 24 c-17 20 -23 22 -33 11
-9 -10 -9 -11 1 -6 6 4 12 2 12 -3 0 -6 -4 -11 -8 -11 -17 0 -104 63 -119 87
-11 17 -21 22 -36 17 -15 -5 -17 -3 -11 7 6 11 4 11 -10 0 -14 -12 -21 -13
-38 -2 -14 9 -18 9 -13 1 6 -9 2 -9 -14 -1 -11 7 -21 14 -21 17 0 3 5 2 10 -1
6 -3 10 -4 10 -1 0 2 -14 11 -30 20 l-30 15 2 -39 c2 -21 6 -36 11 -33 4 2 7
0 7 -6 0 -5 -6 -12 -12 -15 -8 -3 -7 -5 3 -3 9 1 35 -20 58 -47 56 -65 68 -76
79 -76 5 0 15 -7 22 -15 8 -10 9 -15 2 -15 -6 0 -16 -9 -22 -21 -9 -16 -8 -24
5 -39 9 -10 14 -23 11 -29 -4 -5 -1 -13 5 -17 8 -4 9 -3 5 4 -13 21 5 13 25
-10 24 -30 24 -37 -1 -31 -14 4 -20 0 -20 -12 0 -15 6 -17 45 -12 46 7 56 -1
30 -23 -8 -7 -15 -16 -15 -21 0 -14 44 0 57 18 9 12 13 13 13 3 0 -7 -7 -21
-15 -30 -13 -15 -12 -16 15 -14 17 1 30 -3 30 -9 0 -7 7 -3 15 7 17 22 45 30
45 13 0 -7 4 -7 9 2 5 8 16 11 25 8 8 -3 18 -2 21 3 4 6 16 10 28 9 21 0 21
-1 2 -10 -15 -7 -10 -8 20 -5 22 3 32 2 23 0 -25 -8 -22 -24 5 -25 19 0 18 -2
-8 -11 -16 -6 -36 -15 -43 -21 -15 -12 -82 -17 -97 -7 -11 7 -22 6 -45 -2 -30
-12 -60 -16 -60 -8 0 4 -10 6 -22 5 -13 -1 -29 -3 -35 -4 -36 -3 6 -34 48 -36
9 0 22 -5 30 -12 24 -19 93 -33 152 -30 43 1 57 -1 61 -13 2 -8 4 -4 5 9 0 13
4 21 8 18 3 -4 12 1 19 11 10 12 13 13 14 3 0 -11 3 -11 15 -1 8 6 23 9 36 5
12 -4 19 -3 16 2 -8 13 62 7 79 -8 12 -10 18 -9 31 4 14 14 19 14 49 -1 19 -8
34 -22 34 -29 0 -17 17 -17 23 0 3 6 4 -24 3 -68 -3 -81 4 -109 33 -133 9 -8
10 -11 4 -7 -15 7 -19 -50 -4 -59 5 -3 7 -16 4 -29 -4 -18 -3 -19 6 -7 6 8 11
10 11 4 0 -6 -3 -14 -7 -18 -4 -3 -7 -15 -8 -26 -2 -19 -1 -19 19 -3 17 15 18
15 8 2 -10 -14 -10 -20 3 -32 11 -12 15 -33 13 -84 -2 -37 -7 -71 -13 -75 -6
-5 -5 -8 2 -8 9 0 10 -7 3 -24 -5 -15 -5 -27 2 -34 6 -6 6 -12 -3 -17 -8 -5
-10 -4 -5 3 6 11 -5 16 -26 13 -4 0 -5 5 -2 13 3 8 0 17 -5 21 -6 3 -8 11 -5
17 4 7 2 8 -5 4 -9 -6 -9 -11 0 -22 6 -8 7 -14 2 -14 -5 0 -16 9 -26 20 -16
19 -16 20 1 20 12 1 9 5 -10 16 -34 18 -35 41 -7 97 12 23 18 39 14 34 -5 -4
-18 1 -29 10 -21 18 -21 18 -3 -4 11 -12 14 -24 9 -27 -6 -3 -12 -3 -15 1 -2
5 -3 3 -1 -4 1 -6 -4 -19 -11 -30 -11 -13 -14 -14 -15 -4 0 8 -3 11 -6 8 -4
-4 -2 -13 5 -21 16 -19 -11 -46 -40 -41 -15 3 -19 0 -15 -10 3 -10 0 -12 -11
-8 -11 5 -14 3 -8 -6 6 -10 3 -11 -14 -2 -20 11 -25 8 -22 -12 1 -5 -3 -6 -9
-2 -8 5 -8 11 0 20 7 9 6 16 -5 25 -12 10 -15 10 -15 -1 0 -10 -3 -10 -12 -1
-7 7 -24 12 -39 12 -15 0 -31 5 -34 10 -3 6 -21 10 -39 10 -18 0 -36 3 -40 7
-8 8 -61 13 -167 16 -56 1 -75 5 -72 14 4 10 -2 10 -27 2 -23 -9 -28 -14 -18
-20 10 -7 10 -9 0 -9 -6 0 -21 11 -33 23 -22 27 -99 155 -99 167 0 4 -7 13
-16 21 -10 8 -13 21 -9 38 4 19 3 22 -4 11 -8 -12 -13 -8 -25 21 -22 52 -74
284 -65 287 4 2 -3 28 -17 58 -13 30 -23 60 -21 67 1 6 -3 11 -10 10 -12 -3
-37 53 -34 76 1 7 -2 10 -8 6 -14 -8 9 47 24 57 6 5 6 8 -2 8 -6 0 -13 8 -16
18 -2 10 -11 -6 -20 -37 -16 -50 -16 -57 -1 -79 9 -13 11 -21 5 -18 -23 14
-43 67 -31 81 8 10 1 23 -35 59 -25 24 -49 45 -52 45 -3 -1 -14 12 -24 28 -19
27 -19 14 -19 -729 l0 -758 1280 0 1280 0 0 640 c0 444 -3 640 -11 640 -5 0
-8 -4 -5 -9 6 -9 -28 -44 -36 -36 -2 3 -5 -1 -6 -7 -1 -16 -16 -81 -39 -167
-13 -50 -19 -60 -25 -45 -6 14 -7 12 -3 -8 3 -14 8 -33 11 -42 3 -9 1 -16 -6
-16 -6 0 -8 5 -5 10 3 6 2 10 -4 10 -6 0 -7 -15 -4 -37 4 -20 2 -34 -3 -31
-11 6 -45 -28 -37 -36 7 -6 -38 -56 -50 -56 -14 0 -36 -27 -29 -35 4 -5 -1 -5
-10 -2 -10 4 -17 2 -15 -5 1 -6 -4 -13 -12 -16 -8 -2 -11 0 -8 6 4 5 -1 16
-11 23 -15 13 -16 12 -4 -3 9 -11 10 -18 2 -23 -6 -3 -8 -10 -5 -15 3 -5 -10
-16 -30 -24 -19 -8 -35 -18 -35 -22 0 -8 53 5 60 15 3 4 20 18 39 30 27 20 35
21 43 10 8 -11 9 -10 4 4 -3 11 0 17 9 17 8 0 15 8 15 18 0 14 2 14 9 3 6 -9
4 -19 -5 -28 -8 -8 -14 -19 -14 -24 0 -5 -6 -9 -12 -10 -19 -1 -79 -87 -65
-92 7 -3 2 -4 -10 -4 -12 1 -20 4 -17 8 5 8 -21 19 -44 19 -14 0 -14 -2 -3 -9
11 -7 10 -12 -5 -27 -11 -11 -25 -19 -32 -20 -6 -1 -23 -2 -37 -2 -14 -1 -34
-11 -45 -22 -24 -24 -46 -26 -54 -4 -6 15 -8 15 -26 -1 -14 -13 -17 -22 -10
-30 15 -18 -37 -49 -77 -47 -22 2 -33 -2 -33 -11 0 -22 12 -28 29 -15 13 10
13 8 -1 -6 -15 -18 -18 -18 -33 -2 -13 13 -20 14 -38 4 -15 -8 -18 -13 -8 -16
7 -2 17 2 22 9 7 11 9 11 9 1 0 -7 -8 -15 -17 -18 -10 -3 -26 -10 -35 -15 -22
-12 -31 -12 -23 0 3 5 1 12 -5 16 -5 3 -10 -1 -10 -9 0 -16 -16 -21 -57 -17
-13 1 -23 -4 -23 -11 0 -8 -5 -6 -11 5 -5 9 -21 17 -34 17 -13 0 -27 5 -30 10
-4 6 -16 8 -28 5 -12 -2 -16 -2 -9 1 6 3 10 10 7 14 -3 5 0 12 6 16 8 5 9 3 4
-6 -5 -8 -4 -11 3 -6 6 4 9 12 7 19 -14 47 -15 68 -3 61 10 -6 10 -4 -1 9 -7
9 -17 15 -21 12 -4 -3 -10 5 -13 17 -4 12 -9 19 -13 15 -4 -3 1 -22 10 -41 16
-33 22 -76 9 -63 -3 4 -12 -1 -20 -11 -14 -16 -14 -16 -9 1 4 11 2 16 -5 12
-6 -4 -8 -14 -5 -22 4 -8 -11 -30 -37 -55 -23 -23 -35 -37 -27 -33 13 8 13 7
1 -8 -7 -9 -22 -17 -32 -17 -11 0 -19 -4 -19 -10 0 -14 -91 0 -111 16 -10 9
-15 26 -13 47 8 88 17 249 16 306 -1 49 3 68 16 78 16 12 15 13 -3 7 -20 -6
-20 -5 -1 10 13 11 15 16 6 16 -7 0 -10 3 -7 6 4 4 13 1 21 -5 12 -10 18 -6
32 18 10 17 23 31 28 31 6 0 5 5 -2 12 -8 8 -15 8 -24 1 -7 -6 -24 -10 -38 -8
-34 3 -34 3 -21 18 6 8 9 16 6 19 -3 3 1 11 10 18 8 7 15 17 15 23 0 6 -7 2
-15 -9 -16 -22 -16 -22 -19 29 -1 20 1 38 6 38 4 1 12 2 17 3 5 0 13 4 16 8 4
4 -4 5 -18 2 l-26 -4 2 73 c2 67 1 74 -16 69 -11 -3 -17 0 -15 9 2 8 -3 13
-11 11 -9 -2 -11 3 -7 13 17 44 18 91 2 104 -14 12 -16 11 -16 -7 0 -12 -4
-24 -10 -27 -6 -4 -10 6 -10 24 0 36 -9 61 -22 61 -5 0 -6 -5 -3 -10 3 -6 -1
-13 -10 -16 -9 -4 -21 -18 -26 -33 -8 -20 -12 -22 -19 -11 -7 10 -10 11 -10 3
0 -7 -7 -13 -15 -13 -19 0 -19 19 0 26 8 4 15 11 15 17 0 6 -3 7 -7 4 -3 -4
-15 1 -26 10 -14 13 -18 14 -12 3 12 -20 15 -39 6 -44 -10 -7 -57 32 -49 40 4
4 16 1 25 -7 16 -12 17 -12 6 2 -7 9 -10 19 -6 22 3 4 1 7 -5 7 -6 0 -14 -4
-17 -10 -7 -12 -85 -14 -85 -2 0 5 -18 7 -39 5 -44 -3 -111 21 -111 40 0 8 -4
7 -10 -3 -7 -10 -10 -11 -10 -2 0 7 -11 18 -25 24 -14 6 -25 17 -25 23 0 7 -7
18 -15 25 -8 7 -15 22 -16 34 0 20 -1 20 -8 1 -7 -16 -9 -14 -14 14 -4 19 -7
54 -6 80 1 43 2 44 10 16 4 -16 10 -42 13 -56 7 -32 48 -93 61 -91 6 1 9 26 7
56 -4 56 11 101 29 90 6 -3 8 -8 5 -11 -5 -6 18 -33 29 -33 3 0 3 6 -1 13 -4
6 2 3 15 -7 12 -11 19 -26 16 -33 -2 -8 -1 -12 4 -9 11 7 23 -22 14 -36 -3 -6
-1 -8 4 -5 6 4 14 0 17 -9 3 -8 2 -12 -3 -9 -5 3 -12 1 -16 -4 -3 -6 3 -8 13
-6 13 2 27 -7 42 -27 15 -21 25 -27 33 -19 7 7 3 16 -13 29 -20 16 -24 30 -26
81 -1 33 1 63 6 66 4 2 7 -21 6 -53 -2 -54 9 -92 26 -92 5 0 8 21 8 48 0 72
11 126 22 110 6 -9 7 -5 3 11 -4 13 -2 35 5 50 7 14 16 35 20 46 17 51 63 134
71 129 5 -3 6 1 3 9 -3 8 3 21 14 28 11 8 20 17 20 22 1 4 6 15 12 25 8 13 9
11 4 -13 -4 -16 -11 -35 -15 -41 -5 -6 -16 -52 -26 -103 -17 -92 -18 -92 -30
-59 -12 31 -13 29 -7 -27 3 -33 12 -76 20 -95 8 -19 12 -45 9 -57 -3 -13 -1
-23 4 -23 7 0 25 -53 23 -70 -1 -10 63 -5 75 6 10 10 9 15 -2 24 -11 9 -14 29
-11 81 6 89 23 137 65 174 19 16 43 39 53 49 18 19 18 19 18 -15 0 -59 42
-293 57 -317 7 -12 11 -28 7 -34 -4 -6 -3 -8 3 -5 6 4 14 0 17 -9 5 -12 0 -14
-24 -10 -17 2 -28 0 -24 -5 3 -5 10 -7 15 -4 5 4 9 1 9 -4 0 -6 -4 -11 -8 -11
-8 0 -14 -32 -16 -82 -1 -14 -5 -24 -10 -21 -5 3 -6 -9 -1 -28 9 -46 9 -110 0
-133 -6 -13 -5 -17 2 -13 6 4 45 9 87 12 57 4 76 2 76 -8 0 -8 4 -7 11 3 8 11
12 12 16 3 7 -18 26 -16 19 2 -10 26 12 16 34 -15 12 -16 25 -29 29 -27 4 1
22 -13 40 -30 32 -32 49 -37 63 -18 5 6 8 3 8 -7 0 -24 18 -32 38 -16 15 12
16 11 4 -4 -30 -38 22 -51 84 -22 19 9 32 19 30 23 -3 4 8 6 24 5 18 -1 27 2
24 10 -3 7 4 12 16 12 14 0 19 -5 15 -16 -5 -11 -3 -12 6 -3 12 12 3 37 -10
28 -5 -2 -6 8 -3 23 5 24 6 24 13 7 6 -16 8 -14 8 11 1 31 18 51 74 87 28 18
29 18 43 0 14 -17 14 -17 5 4 -9 18 -4 30 34 79 25 32 45 61 45 66 0 5 5 6 11
2 8 -4 9 1 4 16 -4 12 -3 20 2 17 4 -3 13 6 20 19 8 18 8 22 0 18 -8 -5 -7 -2
0 7 7 7 13 19 13 26 0 7 9 22 20 33 12 12 18 25 15 30 -3 5 0 12 6 16 7 4 9 3
5 -4 -3 -6 -2 -13 3 -17 6 -3 8 5 6 17 -3 15 7 38 30 67 44 55 46 76 8 65 -16
-4 -39 -7 -52 -7 -15 1 -19 -2 -12 -6 8 -5 -1 -14 -26 -26 -21 -10 -49 -26
-62 -36 -13 -10 -27 -16 -32 -13 -5 3 -9 0 -9 -6 0 -15 -54 -36 -111 -45 -65
-10 -78 9 -52 73 22 52 20 89 -3 50 -8 -12 -17 -31 -20 -40 -3 -10 -11 -18
-16 -18 -5 0 -6 -6 -2 -12 4 -7 -3 -4 -16 7 -13 11 -21 15 -17 9 3 -5 -3 -23
-14 -40 -10 -16 -19 -25 -19 -20 0 6 -6 1 -14 -10 -8 -10 -18 -16 -22 -12 -3
4 -15 -4 -26 -18 -11 -13 -33 -31 -48 -39 -27 -14 -29 -14 -39 13 l-10 27 2
-30 c1 -16 -1 -30 -4 -30 -4 0 -17 -9 -30 -20 -12 -11 -19 -14 -15 -7 12 21
-10 13 -38 -13 -34 -31 -66 -39 -114 -29 -20 4 -40 7 -44 6 -3 -1 -4 12 -1 28
3 23 0 32 -14 37 -27 10 -33 23 -33 72 0 56 11 48 13 -10 2 -38 5 -44 24 -45
12 -1 20 3 17 7 -7 12 26 60 37 53 5 -3 6 2 3 10 -4 10 -1 16 7 16 10 0 11 2
2 8 -8 5 -5 15 11 34 28 36 45 24 49 -38 6 -80 42 -147 62 -114 3 6 -1 7 -9 4
-12 -5 -16 0 -16 19 0 14 5 29 12 33 7 5 9 1 6 -12 -3 -14 0 -20 12 -20 14 0
16 8 12 47 -5 54 10 89 39 89 11 0 17 5 14 10 -3 5 1 10 10 10 10 0 13 -5 9
-12 -5 -7 -3 -8 5 -4 7 5 20 1 31 -9 17 -15 19 -15 25 5 4 12 9 20 11 17 2 -2
-2 -19 -10 -37 -9 -22 -15 -28 -20 -19 -3 8 -3 3 0 -10 5 -17 3 -21 -6 -16 -9
6 -11 4 -5 -4 5 -9 13 -7 29 8 12 12 26 18 31 14 4 -5 5 -2 1 4 -4 7 -2 22 5
34 9 18 13 19 21 8 6 -10 7 -7 3 10 -5 15 -3 21 3 17 6 -3 8 1 5 12 -2 10 7
30 22 46 14 16 24 34 22 41 -3 6 1 38 9 71 20 88 18 226 -6 304 -11 36 -20 66
-20 67 0 1 8 0 18 -4 11 -4 10 0 -6 11 -42 32 -19 48 33 24 15 -7 24 -17 21
-25 -3 -8 -2 -12 3 -9 13 8 62 -111 68 -165 8 -65 -5 -161 -20 -153 -9 5 -9 4
0 -6 9 -9 8 -21 -1 -49 -22 -62 -4 -79 38 -34 35 38 65 99 85 179 l18 69 7
-45 c9 -54 39 -67 51 -22 9 36 22 231 14 227 -8 -5 -30 85 -24 96 4 5 1 9 -5
9 -7 0 -9 7 -6 16 3 8 2 13 -2 10 -5 -3 -17 9 -27 26 -10 17 -12 28 -6 23 8
-4 18 1 27 14 8 12 20 21 26 21 6 0 3 -9 -7 -20 -18 -20 -18 -21 0 -14 12 5
16 4 11 -4 -4 -7 2 -8 23 -2 16 4 32 6 35 3 3 -3 17 8 31 23 l27 29 -22 -32
-21 -33 26 -10 c18 -7 33 -7 47 1 15 8 19 8 14 0 -4 -6 -3 -11 1 -11 5 0 9 -9
10 -20 1 -11 -2 -18 -8 -15 -5 4 -9 1 -9 -6 0 -7 -8 -5 -20 6 -26 23 -26 15 0
-15 11 -13 20 -18 20 -12 0 7 5 12 11 12 5 0 7 -6 3 -12 -5 -9 -2 -9 9 1 9 7
17 10 17 5 0 -4 5 -3 12 4 7 7 16 12 20 12 9 0 -12 -41 -27 -52 -5 -4 0 -8 13
-8 12 0 22 -6 22 -15 0 -7 6 -18 14 -22 20 -11 6 -78 -16 -77 -12 1 -14 -6
-11 -35 3 -20 7 -38 9 -40 2 -2 -1 -11 -8 -18 -9 -11 -9 -16 2 -23 8 -5 11
-12 7 -16 -3 -4 -15 -1 -24 7 -15 11 -16 11 -5 -1 13 -16 17 -34 4 -26 -4 2
-6 -16 -4 -42 2 -26 4 -59 5 -74 2 -21 5 -24 16 -15 12 10 13 9 6 -2 -6 -11
-2 -13 18 -9 15 3 24 1 21 -3 -3 -5 10 -9 28 -10 18 0 27 -3 20 -6 -10 -4 -10
-8 -2 -18 7 -8 12 -54 12 -107 1 -103 5 -128 19 -106 5 7 9 134 8 281 0 205
-3 266 -12 261 -9 -5 -8 -3 1 7 16 18 16 73 0 63 -10 -6 -10 -4 -1 7 18 18 18
165 1 172 -10 4 -10 6 0 6 10 1 12 34 11 146 l-1 145 -289 0 c-225 -1 -288 -3
-282 -13 5 -9 3 -9 -9 1 -11 8 -54 12 -142 11 l-127 -1 5 -36 5 -37 -10 37
-11 37 -202 0 -202 0 -12 -27 -11 -27 6 28 5 27 -345 0 c-321 0 -346 -1 -350
-17 -4 -17 -5 -17 -6 0 -1 16 -22 17 -291 17 l-290 0 0 -514z m1559 466 c0
-14 -2 -13 -9 3 -5 12 -9 14 -9 6 -1 -8 -4 -12 -7 -8 -9 9 6 28 17 22 5 -4 9
-14 8 -23z m-105 2 c3 -8 2 -12 -4 -9 -6 3 -10 10 -10 16 0 14 7 11 14 -7z
m-519 -24 c10 -11 16 -20 13 -20 -3 0 -13 9 -23 20 -10 11 -16 20 -13 20 3 0
13 -9 23 -20z m826 -7 c-12 -20 -14 -14 -5 12 4 9 9 14 11 11 3 -2 0 -13 -6
-23z m313 11 c3 -8 2 -12 -4 -9 -6 3 -10 10 -10 16 0 14 7 11 14 -7z m-566
-29 c-3 -3 -9 2 -12 12 -6 14 -5 15 5 6 7 -7 10 -15 7 -18z m48 13 c4 -7 3 -8
-4 -4 -8 5 -12 -1 -12 -18 0 -14 -4 -27 -9 -30 -5 -4 -7 4 -4 16 11 52 16 58
29 36z m-89 -30 c-3 -8 -6 -5 -6 6 -1 11 2 17 5 13 3 -3 4 -12 1 -19z m-290
-20 c-3 -7 -5 -2 -5 12 0 14 2 19 5 13 2 -7 2 -19 0 -25z m110 10 c-3 -8 -6
-5 -6 6 -1 11 2 17 5 13 3 -3 4 -12 1 -19z m-20 -40 c-2 -13 -4 -5 -4 17 -1
22 1 32 4 23 2 -10 2 -28 0 -40z m-90 -60 c-2 -13 -4 -3 -4 22 0 25 2 35 4 23
2 -13 2 -33 0 -45z m473 15 c-11 -17 -11 -17 -6 0 3 10 6 24 7 30 0 9 2 9 5 0
3 -7 0 -20 -6 -30z m-590 -18 c0 -5 -5 -3 -10 5 -5 8 -10 20 -10 25 0 6 5 3
10 -5 5 -8 10 -19 10 -25z m347 13 c-3 -8 -6 -5 -6 6 -1 11 2 17 5 13 3 -3 4
-12 1 -19z m391 8 c-7 -8 -15 -12 -17 -11 -5 6 10 25 20 25 5 0 4 -6 -3 -14z
m129 -28 c-3 -8 -6 -5 -6 6 -1 11 2 17 5 13 3 -3 4 -12 1 -19z m-650 -10 c-3
-8 -6 -5 -6 6 -1 11 2 17 5 13 3 -3 4 -12 1 -19z m603 1 c0 -11 -4 -18 -10
-14 -5 3 -7 12 -3 20 7 21 13 19 13 -6z m-1462 -31 l25 -23 -6 23 c-4 19 -3
21 9 11 11 -9 12 -15 3 -26 -7 -7 -14 -11 -17 -8 -3 3 -12 -1 -20 -8 -13 -10
-15 -9 -9 6 3 9 2 17 -2 17 -5 0 -11 7 -15 15 -8 21 4 19 32 -7z m533 -5 c13
-16 12 -17 -3 -4 -10 7 -18 15 -18 17 0 8 8 3 21 -13z m1199 7 c0 -5 -5 -10
-11 -10 -5 0 -7 5 -4 10 3 6 8 10 11 10 2 0 4 -4 4 -10z m-800 -55 c0 -12 -19
-12 -23 0 -4 9 -1 12 9 8 7 -3 14 -7 14 -8z m1200 11 c0 -2 -7 -7 -16 -10 -8
-3 -12 -2 -9 4 6 10 25 14 25 6z m-1530 -10 c0 -3 -4 -8 -10 -11 -5 -3 -10 -1
-10 4 0 6 5 11 10 11 6 0 10 -2 10 -4z m-385 -46 c-15 -16 -32 -27 -37 -24 -5
3 -7 2 -6 -3 4 -12 -48 -84 -55 -76 -4 3 -7 -1 -7 -9 0 -9 -11 -40 -25 -70
-14 -29 -25 -45 -25 -36 0 20 21 70 33 79 5 3 8 9 8 13 -3 22 2 34 24 59 14
15 23 27 19 27 -12 0 21 33 51 52 44 27 53 22 20 -12z m976 3 c-12 -20 -14
-14 -5 12 4 9 9 14 11 11 3 -2 0 -13 -6 -23z m914 -2 c-3 -6 -11 -11 -17 -11
-6 0 -6 6 2 15 14 17 26 13 15 -4z m-1133 -28 c-6 -2 -9 -10 -6 -15 4 -7 2 -8
-5 -4 -13 9 -5 26 12 25 9 0 8 -2 -1 -6z m46 -17 c-7 -8 -15 -12 -17 -11 -5 6
10 25 20 25 5 0 4 -6 -3 -14z m-14 -56 c-10 -16 -20 -28 -22 -26 -4 5 28 56
35 56 2 0 -4 -13 -13 -30z m-460 -67 c-10 -15 -20 -36 -21 -46 -2 -10 -12 -37
-23 -60 -21 -42 -26 -72 -39 -202 l-6 -70 -19 59 c-13 40 -17 74 -13 110 6 57
55 155 99 200 15 15 28 33 28 39 0 6 3 7 6 4 4 -4 -2 -19 -12 -34z m1140 18
c3 -5 -2 -15 -12 -22 -15 -12 -16 -12 -5 2 7 9 10 19 6 22 -3 4 -4 7 0 7 3 0
8 -4 11 -9z m394 -50 c-13 -17 -27 -30 -32 -30 -6 -1 3 13 19 29 37 38 43 39
13 1z m-710 -79 c-5 -2 -8 -13 -7 -25 0 -21 1 -21 8 -3 14 37 20 -9 18 -141
-2 -82 -7 -135 -15 -148 -12 -19 -13 -19 -7 3 5 18 1 28 -15 39 -12 8 -19 21
-17 27 3 7 1 19 -4 27 -7 11 -14 8 -36 -15 -15 -17 -21 -25 -13 -19 13 10 15
5 15 -28 0 -21 -3 -39 -7 -39 -5 0 -8 -5 -8 -11 0 -6 -9 -22 -20 -36 -11 -14
-20 -23 -20 -20 0 19 23 174 36 237 18 92 33 142 42 136 4 -2 7 9 8 25 1 16 7
36 14 44 12 14 15 12 25 -17 6 -18 7 -34 3 -36z m-1311 16 c-3 -8 -6 -5 -6 6
-1 11 2 17 5 13 3 -3 4 -12 1 -19z m1175 -10 c-8 -8 -9 -4 -5 13 4 13 8 18 11
10 2 -7 -1 -18 -6 -23z m-1069 -53 c-3 -9 -8 -14 -10 -11 -3 3 -2 9 2 15 9 16
15 13 8 -4z m989 -7 c-7 -7 -12 -8 -12 -2 0 6 3 14 7 17 3 4 9 5 12 2 2 -3 -1
-11 -7 -17z m348 1 c0 -6 -4 -7 -10 -4 -5 3 -10 11 -10 16 0 6 5 7 10 4 6 -3
10 -11 10 -16z m-1874 -18 c-3 -5 12 -27 35 -50 22 -22 38 -45 34 -50 -3 -6
-1 -28 4 -48 6 -21 12 -49 15 -63 2 -14 7 -33 11 -42 4 -10 3 -18 -2 -18 -10
0 -98 167 -98 186 0 6 -6 18 -14 27 -7 9 -10 21 -6 27 3 5 1 10 -6 10 -8 0 -8
4 1 15 13 16 35 21 26 6z m1248 -16 c-9 -14 -18 -25 -21 -25 -5 0 5 18 20 38
17 22 18 13 1 -13z m133 -7 c-3 -8 -6 -5 -6 6 -1 11 2 17 5 13 3 -3 4 -12 1
-19z m25 -14 c-9 -16 -10 -14 -9 8 1 15 6 23 11 18 4 -4 4 -16 -2 -26z m116
-70 c-1 -77 -6 -108 -15 -111 -7 -3 -13 -11 -13 -18 0 -6 -11 -24 -25 -39 -14
-15 -25 -31 -25 -36 0 -5 -4 -11 -8 -14 -4 -2 -6 11 -4 30 2 19 8 35 13 35 5
1 13 2 18 3 5 0 13 4 17 8 3 4 -3 5 -16 3 -24 -5 -24 -8 -5 90 11 56 49 155
60 155 2 0 4 -48 3 -106z m349 74 c-3 -7 -5 -2 -5 12 0 14 2 19 5 13 2 -7 2
-19 0 -25z m-1288 -54 c0 -55 0 -56 -19 -39 -12 11 -17 22 -11 29 4 6 11 23
15 39 10 41 14 33 15 -29z m798 14 c-3 -8 -6 -5 -6 6 -1 11 2 17 5 13 3 -3 4
-12 1 -19z m604 -55 c-12 -20 -14 -14 -5 12 4 9 9 14 11 11 3 -2 0 -13 -6 -23z
m-1214 -5 c-3 -8 -6 -5 -6 6 -1 11 2 17 5 13 3 -3 4 -12 1 -19z m-260 -10 c-3
-8 -6 -5 -6 6 -1 11 2 17 5 13 3 -3 4 -12 1 -19z m278 -17 c3 -5 2 -12 -3 -15
-5 -3 -9 1 -9 9 0 17 3 19 12 6z m1056 -58 c-12 -20 -14 -14 -5 12 4 9 9 14
11 11 3 -2 0 -13 -6 -23z m-734 -45 c-3 -8 -6 -5 -6 6 -1 11 2 17 5 13 3 -3 4
-12 1 -19z m628 -18 c3 -5 2 -17 -3 -26 -8 -14 -10 -14 -21 0 -13 15 -8 36 9
36 5 0 12 -4 15 -10z m-1280 -210 c-4 -7 3 -9 20 -6 18 3 31 -1 42 -14 9 -10
22 -16 30 -13 9 4 16 -3 20 -17 4 -16 8 -18 14 -9 6 11 11 10 26 -2 26 -22 70
-39 99 -39 23 0 24 -2 10 -15 -23 -24 -156 -19 -156 5 0 4 17 4 37 -1 42 -9
59 -4 19 7 -14 3 -26 10 -26 15 0 5 -7 6 -15 3 -8 -4 -15 -1 -15 6 0 6 -4 8
-10 5 -5 -3 -10 -1 -10 5 0 6 -4 9 -9 6 -5 -4 -11 -1 -13 6 -2 6 -15 13 -27
15 -19 3 -22 1 -12 -11 6 -8 25 -19 41 -26 29 -12 41 -30 20 -30 -5 0 -10 5
-10 11 0 5 -4 8 -8 5 -5 -3 -22 8 -37 24 -16 17 -25 30 -19 30 5 1 -1 9 -13
19 -21 17 -21 31 -1 31 5 0 6 -5 3 -10z m897 -79 c-4 -72 -7 -82 -18 -67 -9
13 -10 25 -3 43 5 13 9 37 9 53 0 27 10 64 15 58 1 -2 0 -41 -3 -87z m719 20
c7 12 9 12 9 0 0 -26 -49 -79 -82 -89 -18 -6 -58 -13 -88 -16 -30 -4 -75 -9
-100 -12 -25 -3 -65 -1 -89 6 -51 14 -45 25 31 58 46 20 47 20 64 1 29 -33 89
-23 105 17 6 17 17 24 36 25 36 2 35 2 57 -7 16 -6 18 -4 13 9 -6 15 -4 16 14
6 17 -9 23 -8 30 2z m-171 -32 c0 -8 -26 -19 -46 -19 -8 0 -14 6 -14 13 0 7
13 12 30 12 17 0 30 -3 30 -6z m-713 -21 c-3 -8 -6 -5 -6 6 -1 11 2 17 5 13 3
-3 4 -12 1 -19z m-1034 -16 c15 -16 15 -18 -1 -18 -10 0 -18 8 -18 18 0 10 1
18 2 18 0 0 8 -8 17 -18z m464 -65 c0 -8 -6 -14 -14 -14 -14 0 -17 10 -6 20
10 11 20 8 20 -6z m586 -224 c-4 -11 -8 -13 -11 -5 -2 7 -9 9 -15 5 -7 -4 -6
1 2 10 16 20 33 13 24 -10z m677 -476 c0 -2 -10 -12 -22 -23 l-23 -19 19 23
c18 21 26 27 26 19z m-336 -35 c3 -5 -1 -9 -9 -9 -8 0 -12 4 -9 9 3 4 7 8 9 8
2 0 6 -4 9 -8z m138 -37 c2 3 5 -2 5 -10 0 -10 -4 -12 -12 -5 -7 5 -14 8 -17
5 -2 -3 -5 2 -5 10 0 10 4 12 12 5 7 -5 14 -8 17 -5z m-98 -16 c-9 -10 -21
-16 -26 -13 -12 8 8 31 27 31 13 0 13 -3 -1 -18z"/>
<path d="M1726 1853 c-6 -14 -5 -15 5 -6 7 7 10 15 7 18 -3 3 -9 -2 -12 -12z"/>
<path d="M56 1737 c3 -10 9 -15 12 -12 3 3 0 11 -7 18 -10 9 -11 8 -5 -6z"/>
<path d="M493 2261 c0 -11 5 -18 9 -15 4 3 5 11 1 19 -7 21 -12 19 -10 -4z"/>
<path d="M2205 2220 c-3 -5 -1 -10 4 -10 6 0 11 5 11 10 0 6 -2 10 -4 10 -3 0
-8 -4 -11 -10z"/>
<path d="M2340 2219 c0 -5 5 -7 10 -4 6 3 10 8 10 11 0 2 -4 4 -10 4 -5 0 -10
-5 -10 -11z"/>
<path d="M2421 2073 c0 -4 4 -17 8 -27 6 -15 9 -16 13 -5 3 8 -1 20 -8 27 -8
7 -14 9 -13 5z"/>
<path d="M285 2020 c-3 -6 1 -7 9 -4 18 7 21 14 7 14 -6 0 -13 -4 -16 -10z"/>
<path d="M297 1926 c-4 -9 -11 -14 -17 -11 -6 3 -7 0 -4 -9 5 -14 8 -14 21 -1
8 9 13 21 11 27 -3 7 -7 5 -11 -6z"/>
<path d="M2224 1832 c-10 -82 -8 -92 18 -117 l20 -20 -11 22 c-7 15 -8 24 -1
28 6 4 9 1 8 -7 -2 -7 3 -12 10 -10 8 1 11 -2 7 -8 -3 -5 -1 -10 4 -10 6 0 11
5 11 11 0 8 4 8 13 1 10 -8 13 -6 13 7 0 10 -5 17 -12 14 -21 -8 -36 26 -38
88 -2 48 -6 63 -19 65 -12 2 -17 -12 -23 -64z"/>
<path d="M2284 1875 c0 -13 3 -22 7 -19 8 4 6 30 -2 38 -3 3 -5 -5 -5 -19z"/>
<path d="M260 1881 c0 -5 7 -12 16 -15 14 -5 15 -4 4 9 -14 17 -20 19 -20 6z"/>
<path d="M296 1813 c-6 -14 -5 -15 5 -6 7 7 10 15 7 18 -3 3 -9 -2 -12 -12z"/>
<path d="M1961 1774 c0 -11 3 -14 6 -6 3 7 2 16 -1 19 -3 4 -6 -2 -5 -13z"/>
<path d="M501 1724 c0 -11 3 -14 6 -6 3 7 2 16 -1 19 -3 4 -6 -2 -5 -13z"/>
<path d="M1052 1695 c0 -16 2 -22 5 -12 2 9 2 23 0 30 -3 6 -5 -1 -5 -18z"/>
<path d="M270 1695 c-14 -8 -20 -14 -15 -14 6 0 21 6 35 14 14 8 21 14 15 14
-5 0 -21 -6 -35 -14z"/>
<path d="M2115 1700 c-3 -5 -1 -10 4 -10 6 0 11 5 11 10 0 6 -2 10 -4 10 -3 0
-8 -4 -11 -10z"/>
<path d="M2415 1700 c3 -5 8 -10 11 -10 2 0 4 5 4 10 0 6 -5 10 -11 10 -5 0
-7 -4 -4 -10z"/>
<path d="M591 1624 c0 -11 3 -14 6 -6 3 7 2 16 -1 19 -3 4 -6 -2 -5 -13z"/>
<path d="M215 1620 c-3 -6 1 -7 9 -4 18 7 21 14 7 14 -6 0 -13 -4 -16 -10z"/>
<path d="M1321 1604 c0 -11 3 -14 6 -6 3 7 2 16 -1 19 -3 4 -6 -2 -5 -13z"/>
<path d="M1297 1589 c4 -13 8 -18 11 -10 2 7 -1 18 -6 23 -8 8 -9 4 -5 -13z"/>
<path d="M2511 1594 c0 -11 3 -14 6 -6 3 7 2 16 -1 19 -3 4 -6 -2 -5 -13z"/>
<path d="M1011 1564 c0 -11 3 -14 6 -6 3 7 2 16 -1 19 -3 4 -6 -2 -5 -13z"/>
<path d="M1081 1544 c0 -11 3 -14 6 -6 3 7 2 16 -1 19 -3 4 -6 -2 -5 -13z"/>
<path d="M2171 1544 c0 -11 3 -14 6 -6 3 7 2 16 -1 19 -3 4 -6 -2 -5 -13z"/>
<path d="M810 1546 c0 -2 8 -10 18 -17 15 -13 16 -12 3 4 -13 16 -21 21 -21
13z"/>
<path d="M2486 1513 c-6 -14 -5 -15 5 -6 7 7 10 15 7 18 -3 3 -9 -2 -12 -12z"/>
<path d="M2082 1493 c6 -7 16 -13 22 -13 6 0 5 4 -3 9 -11 7 -11 9 0 14 8 3 4
4 -8 4 -17 -1 -19 -4 -11 -14z"/>
<path d="M1983 1483 c9 -2 23 -2 30 0 6 3 -1 5 -18 5 -16 0 -22 -2 -12 -5z"/>
<path d="M1993 1463 c9 -2 23 -2 30 0 6 3 -1 5 -18 5 -16 0 -22 -2 -12 -5z"/>
<path d="M94 1432 c17 -17 34 -32 39 -32 9 0 -3 12 -43 45 -20 16 -19 13 4
-13z"/>
<path d="M777 1419 c7 -7 15 -10 18 -7 3 3 -2 9 -12 12 -14 6 -15 5 -6 -5z"/>
<path d="M1375 1409 c-4 -6 -5 -12 -2 -15 2 -3 7 2 10 11 7 17 1 20 -8 4z"/>
<path d="M1496 1403 c-6 -14 -5 -15 5 -6 7 7 10 15 7 18 -3 3 -9 -2 -12 -12z"/>
<path d="M1481 1348 c21 -29 49 -52 33 -27 -14 24 -16 51 -2 43 7 -4 10 -3 5
1 -4 5 -18 9 -31 10 l-24 1 19 -28z"/>
<path d="M201 1329 c-7 -12 -10 -23 -8 -26 3 -3 11 5 17 17 15 28 8 35 -9 9z"/>
<path d="M1603 1335 c0 -8 4 -15 9 -15 4 0 8 4 8 9 0 6 -4 12 -8 15 -5 3 -9
-1 -9 -9z"/>
<path d="M203 1275 c0 -8 4 -12 9 -9 5 3 6 10 3 15 -9 13 -12 11 -12 -6z"/>
<path d="M2490 1260 c-6 -11 -8 -20 -6 -20 3 0 10 9 16 20 6 11 8 20 6 20 -3
0 -10 -9 -16 -20z"/>
<path d="M2309 1125 c-33 -34 -58 -47 -43 -22 6 9 3 8 -8 -1 -9 -8 -15 -19
-12 -26 3 -8 -2 -20 -11 -29 -8 -9 -11 -18 -6 -21 5 -4 11 -2 13 3 1 4 31 31
66 60 34 28 62 56 62 61 0 21 -30 8 -61 -25z"/>
<path d="M690 1129 c0 -5 5 -7 10 -4 6 3 10 8 10 11 0 2 -4 4 -10 4 -5 0 -10
-5 -10 -11z"/>
<path d="M2295 1071 c-3 -5 -2 -12 3 -15 5 -3 9 1 9 9 0 17 -3 19 -12 6z"/>
<path d="M1373 1054 c0 -14 23 -12 37 2 7 7 2 10 -13 10 -13 0 -24 -5 -24 -12z"/>
<path d="M1335 999 c-4 -6 -5 -12 -2 -15 2 -3 7 2 10 11 7 17 1 20 -8 4z"/>
<path d="M1326 905 c-11 -8 -15 -15 -9 -15 6 0 16 7 23 15 16 19 11 19 -14 0z"/>
<path d="M381 814 c0 -11 3 -14 6 -6 3 7 2 16 -1 19 -3 4 -6 -2 -5 -13z"/>
<path d="M475 822 c19 -21 175 -49 175 -32 0 3 -28 11 -62 17 -35 6 -76 14
-93 18 -21 5 -27 4 -20 -3z"/>
<path d="M445 709 c-11 -16 -1 -19 13 -3 7 8 8 14 3 14 -5 0 -13 -5 -16 -11z"/>
<path d="M466 653 c-6 -14 -5 -15 5 -6 7 7 10 15 7 18 -3 3 -9 -2 -12 -12z"/>
<path d="M1150 630 c0 -5 9 -8 20 -7 21 1 18 10 -5 13 -8 1 -15 -2 -15 -6z"/>
<path d="M1175 591 c-3 -6 -3 -11 2 -11 4 0 0 -5 -9 -11 -10 -5 -18 -15 -18
-20 0 -6 7 -3 16 6 14 13 19 14 25 3 6 -9 8 -6 6 9 -4 28 -13 38 -22 24z"/>
<path d="M1526 522 c-3 -5 1 -9 9 -9 8 0 12 4 9 9 -3 4 -7 8 -9 8 -2 0 -6 -4
-9 -8z"/>
</g>
</svg>
